<svg id="svg" version="1.1" xmlns="http://www.w3.org/2000/svg" xmlns:xlink="http://www.w3.org/1999/xlink" width="400"
     height="61.333333333333336" viewBox="0, 0, 400,61.333333333333336">
    <g id="svgg">
        <path id="path0"
              d="M231.000 8.219
              C 224.554 10.350,221.332 14.145,221.336 19.600
              C 221.341 26.213,224.031 28.525,236.066 32.254
              C 244.667 34.919,246.886 36.290,247.985 39.620
              C 251.017 48.809,236.525 53.188,226.065 46.243
              L 222.455 43.846 221.225 45.423
              C 218.442 48.992,227.497 53.609,237.333 53.636
              C 246.382 53.661,252.007 49.915,253.108 43.131
              C 254.377 35.309,250.302 31.080,238.079 27.537
              C 226.198 24.092,223.232 20.328,228.167 14.954
              C 232.440 10.301,242.356 10.753,248.186 15.868
              C 249.377 16.912,251.667 15.031,251.667 13.008
              C 251.667 9.836,236.641 6.353,231.000 8.219 M7.333 30.667
              L 7.333 53.333 17.833 53.304
              C 29.534 53.272,33.332 52.759,35.864 50.868
              C 42.521 45.898,42.132 35.418,35.152 31.667
              C 32.265 30.115,32.079 29.524,34.226 28.708
              C 40.391 26.364,41.809 16.986,36.763 11.939
              C 33.398 8.574,30.722 8.008,18.167 8.004
              L 7.333 8.000 7.333 30.667 M58.000 30.667
              L 58.000 53.333 60.333 53.333
              L 62.667 53.333 62.667 30.667
              L 62.667 8.000 60.333 8.000
              L 58.000 8.000 58.000 30.667 M78.000 9.977

              L 78.000 11.955 85.167 12.144
              L 92.333 12.333 92.510 32.833
              L 92.686 53.333 95.000 53.333
              L 97.314 53.333 97.490 32.833
              L 97.667 12.333 104.833 12.144
              L 112.000 11.955 112.000 9.977
              L 112.000 8.000 95.000 8.000
              L 78.000 8.000 78.000 9.977

              M128.755 10.333
              L 127.378 12.667 141.022 12.667
              L 154.667 12.667 154.667 10.333
              L 154.667 8.000 142.399 8.000
              L 130.132 8.000 128.755 10.333 M176.693 28.500
              C 172.145 39.775,168.017 49.993,167.520 51.206
              L 166.616 53.412 169.414 53.206
              L 172.213 53.000 174.294 48.000
              L 176.375 43.000 187.637 42.817
              C 200.412 42.609,199.607 42.291,202.067 48.513
              C 203.839 52.992,203.846 53.000,206.675 53.209
              C 208.902 53.374,209.431 53.216,209.146 52.473
              C 208.946 51.952,204.821 41.733,199.978 29.763
              L 191.173 8.000 188.068 8.000
              L 184.963 8.000 176.693 28.500 M266.000 9.977
              L 266.000 11.955 273.167 12.144
              L 280.333 12.333 280.510 32.833
              L 280.686 53.333 283.000 53.333
              L 285.314 53.333 285.490 32.833
              L 285.667 12.333 292.833 12.144
              L 300.000 11.955 300.000 9.977
              L 300.000 8.000 283.000 8.000
              L 266.000 8.000 266.000 9.977
              M315.333 30.667
              L 315.333 53.333 330.000 53.333
              L 344.667 53.333 344.667 51.333
              L 344.667 49.333 333.167 49.323
              C 318.873 49.310,319.913 50.033,320.145 40.280
              L 320.333 32.333 332.167 32.151
              L 344.000 31.969 344.000 30.000
              L 344.000 28.031 332.167 27.849
              L 320.333 27.667 320.333 20.000
              L 320.333 12.333 332.500 12.152
              L 344.667 11.970 344.667 9.985
              L 344.667 8.000 330.000 8.000
              L 315.333 8.000 315.333 30.667
              M361.333 30.599
              L 361.333 53.333 363.648 53.333
              L 365.962 53.333 366.148 44.167
              L 366.333 35.000 371.286 35.000
              L 376.239 35.000 381.643 43.490
              C 388.174 53.752,387.910 53.475,390.921 53.212
              L 393.350 53.000 387.675 44.512
              C 381.758 35.661,381.077 34.000,383.366 34.000
              C 391.277 34.000,396.108 21.598,391.128 14.073
              C 387.926 9.235,385.363 8.416,372.500 8.121
              L 361.333 7.866 361.333 30.599
              M31.397 13.541
              C 35.207 16.060,35.863 21.973,32.723 25.489
              L 30.779 27.667 21.556 27.667
              L 12.333 27.667 12.143 20.764
              C 12.010 15.965,12.206 13.555,12.787 12.855
              C 14.026 11.362,28.933 11.912,31.397 13.541
              M383.892 13.596
              C 388.401 15.958,389.798 22.868,386.590 26.946
              C 384.134 30.068,382.061 30.667,373.700 30.667
              L 366.000 30.667 366.000 21.778
              C 366.000 16.889,366.225 12.657,366.500 12.374
              C 367.478 11.368,381.521 12.354,383.892 13.596
              M193.317 25.578
              C 195.893 32.086,198.000 37.693,198.000 38.039
              C 198.000 38.404,193.812 38.667,188.000 38.667
              C 182.500 38.667,178.000 38.497,178.000 38.291
              C 178.000 37.514,186.906 14.964,187.534 14.151
              C 188.419 13.005,188.060 12.295,193.317 25.578
              M32.109 33.545
              C 37.161 36.958,36.954 45.105,31.746 47.798
              C 28.974 49.231,14.498 49.910,13.011 48.676
              C 11.925 47.774,11.474 33.419,12.500 32.385
              C 13.585 31.291,30.231 32.276,32.109 33.545
              M128.000 49.730
              C 128.000 49.949,128.515 50.999,129.144 52.064
              L 130.287 54.000 142.477 54.000
              L 154.667 54.000 154.667 51.667
              L 154.667 49.333 141.333 49.333
              C 134.000 49.333,128.000 49.512,128.000 49.730"
              ></path>
        <path id="path1" d="M121.071 23.750
              C 116.538 31.533,116.530 30.278,121.167 38.337
              C 124.860 44.756,125.092 45.008,127.500 45.207
              C 130.653 45.468,130.700 45.734,126.241 38.101
              C 124.174 34.562,122.389 31.495,122.275 31.284
              C 122.160 31.074,123.038 29.274,124.226 27.284
              C 125.413 25.295,127.211 22.242,128.221 20.500
              L 130.056 17.333 127.432 17.333
              C 124.818 17.333,124.793 17.359,121.071 23.750"
              stroke="none" fill="#Ea5053" fill-rule="evenodd"></path>
    </g>
</svg>
