<?xml version="1.0" encoding="utf-8"?>
<!-- Generator: Adobe Illustrator 24.3.0, SVG Export Plug-In . SVG Version: 6.00 Build 0)  -->
<svg version="1.1" xmlns="http://www.w3.org/2000/svg" xmlns:xlink="http://www.w3.org/1999/xlink" x="0px" y="0px"
	 viewBox="0 0 1174.1 1184.5" style="enable-background:new 0 0 1174.1 1184.5;" xml:space="preserve">
<g id="Livello_2">
	<rect x="0.5" y="0.5" style="fill:#0093A2;stroke:#000000;stroke-miterlimit:10;" width="1173.1" height="1404.7"/>
</g>
<g id="Bob_base">
	<g>
		<path style="fill:#FFFFFF;" d="M595,192.3c0,0,222.2,0,222.2,222.2v547.3c0,0,0,222.2-222.2,222.2h-11.1c0,0-222.2,0-222.2-222.2
			V414.5c0,0,0-222.2,222.2-222.2L595,192.3z"/>
		<path style="fill:#FFFFFF;" d="M515.9,109.3c-30,0-54.4-24.4-54.4-54.4s24.4-54.4,54.4-54.4c30,0,54.4,24.4,54.4,54.4
			C570.3,84.9,546,109.3,515.9,109.3"/>
		<path style="fill:none;stroke:#FFFFFF;stroke-width:11.71;" d="M516.7,66.3c0,0,80.5,61.1,72.2,197.2"/>
	</g>
</g>
<g id="Bob_1" style="display:none;">
	<g style="display:inline;">
		<path style="fill:#00354E;" d="M633.5,324.2c0,0,106.2,0,106.2,106.2v13.3c0,0,0,106.2-106.2,106.2h-88.1c0,0-106.2,0-106.2-106.2
			v-13.3c0,0,0-106.2,106.2-106.2H633.5z"/>
		<path style="fill:#00A8B5;" d="M561.3,449.4c2.9,0,5.3-2.4,5.3-5.3c0-2.9-2.4-5.3-5.3-5.3c-2.9,0-5.3,2.4-5.3,5.3l0,0
			C556,447,558.4,449.4,561.3,449.4L561.3,449.4"/>
		<path style="fill:#00A8B5;" d="M615.8,449.4c2.9,0,5.3-2.4,5.3-5.3c0-2.9-2.4-5.3-5.3-5.3c-2.9,0-5.3,2.4-5.3,5.3l0,0
			C610.5,447,612.9,449.4,615.8,449.4L615.8,449.4"/>
		<path style="fill:#00A8B5;" d="M547.7,430.6c2.9,0,5.3-2.4,5.3-5.3c0-2.9-2.4-5.3-5.3-5.3c-2.9,0-5.3,2.4-5.3,5.3l0,0
			C542.5,428.2,544.8,430.6,547.7,430.6"/>
		<path style="fill:#00A8B5;" d="M534.1,430.6c2.9,0,5.3-2.4,5.3-5.3c0-2.9-2.4-5.3-5.3-5.3c-2.9,0-5.3,2.4-5.3,5.3l0,0
			C528.8,428.2,531.2,430.6,534.1,430.6L534.1,430.6"/>
		<path style="fill:#00A8B5;" d="M643.1,430.6c2.9,0,5.3-2.4,5.3-5.3c0-2.9-2.4-5.3-5.3-5.3c-2.9,0-5.3,2.4-5.3,5.3l0,0
			C637.9,428.2,640.2,430.6,643.1,430.6"/>
		<path style="fill:#00A8B5;" d="M656.7,449.4c2.9,0,5.3-2.4,5.3-5.3c0-2.9-2.4-5.3-5.3-5.3c-2.9,0-5.3,2.4-5.3,5.3l0,0
			C651.4,447,653.8,449.4,656.7,449.4L656.7,449.4"/>
		<path style="fill:#00A8B5;" d="M520.4,449.4c2.9,0,5.3-2.4,5.3-5.3c0-2.9-2.4-5.3-5.3-5.3c-2.9,0-5.3,2.4-5.3,5.3l0,0
			C515.1,447,517.5,449.4,520.4,449.4L520.4,449.4"/>
		<path style="fill:#00A8B5;" d="M629.5,430.6c2.9,0,5.3-2.4,5.3-5.3c0-2.9-2.4-5.3-5.3-5.3c-2.9,0-5.3,2.4-5.3,5.3l0,0
			C624.2,428.2,626.6,430.6,629.5,430.6L629.5,430.6"/>
	</g>
	<g style="display:inline;">
		<path style="fill:none;stroke:#FFFFFF;stroke-width:11.71;" d="M995.1,441.9c0,0-46.2,89.9-181.7,105.4"/>
		<path style="fill:#FFFFFF;" d="M1027.4,430.3c0,15.2-12.3,27.5-27.5,27.5s-27.5-12.3-27.5-27.5c0-15.2,12.3-27.5,27.5-27.5
			C1015.1,402.8,1027.4,415.1,1027.4,430.3L1027.4,430.3"/>
	</g>
</g>
<g id="Bob_2" style="display:none;">
	<g style="display:inline;">
		<path style="fill:#00354E;" d="M632.4,324.4c0,0,107.7,0,107.7,107.7v10.7c0,0,0,107.7-107.7,107.7h-85.6c0,0-107.7,0-107.7-107.7
			v-10.7c0,0,0-107.7,107.7-107.7H632.4z"/>
		<path style="fill:#00A8B5;" d="M546.1,415.5c3.1,0,5.5-2.5,5.5-5.5c0-3.1-2.5-5.5-5.5-5.5c-3.1,0-5.5,2.5-5.5,5.5
			C540.6,413.1,543.1,415.5,546.1,415.5"/>
		<path style="fill:#00A8B5;" d="M588.6,415.5c3.1,0,5.5-2.5,5.5-5.5c0-3.1-2.5-5.5-5.5-5.5c-3.1,0-5.5,2.5-5.5,5.5
			C583.1,413.1,585.6,415.5,588.6,415.5"/>
		<path style="fill:#00A8B5;" d="M645.3,415.5c3.1,0,5.5-2.5,5.5-5.5c0-3.1-2.5-5.5-5.5-5.5c-3.1,0-5.5,2.5-5.5,5.5
			C639.8,413.1,642.3,415.5,645.3,415.5"/>
		<path style="fill:#00A8B5;" d="M574.5,454.7c3.1,0,5.5-2.5,5.5-5.5c0-3.1-2.5-5.5-5.5-5.5s-5.5,2.5-5.5,5.5
			C568.9,452.2,571.4,454.7,574.5,454.7"/>
		<path style="fill:#00A8B5;" d="M588.6,454.7c3.1,0,5.5-2.5,5.5-5.5c0-3.1-2.5-5.5-5.5-5.5c-3.1,0-5.5,2.5-5.5,5.5
			S585.6,454.7,588.6,454.7"/>
		<path style="fill:#00A8B5;" d="M546.1,454.7c3.1,0,5.5-2.5,5.5-5.5c0-3.1-2.5-5.5-5.5-5.5c-3.1,0-5.5,2.5-5.5,5.5
			S543.1,454.7,546.1,454.7"/>
		<path style="fill:#00A8B5;" d="M602.8,454.7c3.1,0,5.5-2.5,5.5-5.5c0-3.1-2.5-5.5-5.5-5.5c-3.1,0-5.5,2.5-5.5,5.5
			S599.8,454.7,602.8,454.7"/>
		<path style="fill:#00A8B5;" d="M631.2,454.7c3.1,0,5.5-2.5,5.5-5.5c0-3.1-2.5-5.5-5.5-5.5c-3.1,0-5.5,2.5-5.5,5.5
			C625.6,452.2,628.1,454.7,631.2,454.7"/>
		<path style="fill:#00A8B5;" d="M546.1,435.1c3.1,0,5.5-2.5,5.5-5.5c0-3.1-2.5-5.5-5.5-5.5c-3.1,0-5.5,2.5-5.5,5.5
			S543.1,435.1,546.1,435.1"/>
		<path style="fill:#00A8B5;" d="M574.5,435.1c3.1,0,5.5-2.5,5.5-5.5c0-3.1-2.5-5.5-5.5-5.5s-5.5,2.5-5.5,5.5
			C568.9,432.6,571.4,435.1,574.5,435.1"/>
		<path style="fill:#00A8B5;" d="M602.8,435.1c3.1,0,5.5-2.5,5.5-5.5c0-3.1-2.5-5.5-5.5-5.5c-3.1,0-5.5,2.5-5.5,5.5
			S599.8,435.1,602.8,435.1"/>
		<path style="fill:#00A8B5;" d="M602.8,474.2c3.1,0,5.5-2.5,5.5-5.5c0-3.1-2.5-5.5-5.5-5.5c-3.1,0-5.5,2.5-5.5,5.5
			C597.3,471.8,599.8,474.2,602.8,474.2"/>
		<path style="fill:#00A8B5;" d="M645.3,474.2c3.1,0,5.5-2.5,5.5-5.5c0-3.1-2.5-5.5-5.5-5.5c-3.1,0-5.5,2.5-5.5,5.5
			C639.8,471.8,642.3,474.2,645.3,474.2"/>
		<path style="fill:#00A8B5;" d="M659.5,415.5c3.1,0,5.5-2.5,5.5-5.5c0-3.1-2.5-5.5-5.5-5.5c-3.1,0-5.5,2.5-5.5,5.5
			C654,413.1,656.5,415.5,659.5,415.5"/>
		<path style="fill:#00A8B5;" d="M659.5,474.2c3.1,0,5.5-2.5,5.5-5.5c0-3.1-2.5-5.5-5.5-5.5c-3.1,0-5.5,2.5-5.5,5.5
			C654,471.8,656.5,474.2,659.5,474.2"/>
		<path style="fill:#00A8B5;" d="M517.8,415.5c3.1,0,5.5-2.5,5.5-5.5c0-3.1-2.5-5.5-5.5-5.5c-3.1,0-5.5,2.5-5.5,5.5
			C512.2,413.1,514.7,415.5,517.8,415.5"/>
		<path style="fill:#00A8B5;" d="M504,415.5c3.1,0,5.5-2.5,5.5-5.5c0-3.1-2.5-5.5-5.5-5.5c-3.1,0-5.5,2.5-5.5,5.5
			C498.4,413.1,500.9,415.5,504,415.5"/>
		<path style="fill:#00A8B5;" d="M702,415.5c3.1,0,5.5-2.5,5.5-5.5c0-3.1-2.5-5.5-5.5-5.5c-3.1,0-5.5,2.5-5.5,5.5
			C696.4,413.1,698.9,415.5,702,415.5"/>
		<path style="fill:#00A8B5;" d="M673.2,435.1c3.1,0,5.5-2.5,5.5-5.5c0-3.1-2.5-5.5-5.5-5.5s-5.5,2.5-5.5,5.5
			S670.2,435.1,673.2,435.1"/>
		<path style="fill:#00A8B5;" d="M490.2,435.1c3.1,0,5.5-2.5,5.5-5.5c0-3.1-2.5-5.5-5.5-5.5c-3.1,0-5.5,2.5-5.5,5.5
			C484.6,432.6,487.1,435.1,490.2,435.1"/>
		<path style="fill:#00A8B5;" d="M702,435.1c3.1,0,5.5-2.5,5.5-5.5c0-3.1-2.5-5.5-5.5-5.5c-3.1,0-5.5,2.5-5.5,5.5
			C696.4,432.6,698.9,435.1,702,435.1"/>
		<path style="fill:#00A8B5;" d="M673.2,454.7c3.1,0,5.5-2.5,5.5-5.5c0-3.1-2.5-5.5-5.5-5.5s-5.5,2.5-5.5,5.5
			S670.2,454.7,673.2,454.7"/>
		<path style="fill:#00A8B5;" d="M490.2,454.7c3.1,0,5.5-2.5,5.5-5.5c0-3.1-2.5-5.5-5.5-5.5c-3.1,0-5.5,2.5-5.5,5.5
			C484.6,452.2,487.1,454.7,490.2,454.7"/>
		<path style="fill:#00A8B5;" d="M517.8,474.2c3.1,0,5.5-2.5,5.5-5.5c0-3.1-2.5-5.5-5.5-5.5c-3.1,0-5.5,2.5-5.5,5.5
			C512.2,471.8,514.7,474.2,517.8,474.2"/>
		<path style="fill:#00A8B5;" d="M504,474.2c3.1,0,5.5-2.5,5.5-5.5c0-3.1-2.5-5.5-5.5-5.5c-3.1,0-5.5,2.5-5.5,5.5
			C498.4,471.8,500.9,474.2,504,474.2"/>
		<path style="fill:#00A8B5;" d="M702,474.2c3.1,0,5.5-2.5,5.5-5.5c0-3.1-2.5-5.5-5.5-5.5c-3.1,0-5.5,2.5-5.5,5.5
			C696.4,471.8,698.9,474.2,702,474.2"/>
		<path style="fill:#00A8B5;" d="M574.5,474.2c3.1,0,5.5-2.5,5.5-5.5c0-3.1-2.5-5.5-5.5-5.5s-5.5,2.5-5.5,5.5
			C568.9,471.8,571.4,474.2,574.5,474.2"/>
		<path style="fill:#00A8B5;" d="M546.1,474.2c3.1,0,5.5-2.5,5.5-5.5c0-3.1-2.5-5.5-5.5-5.5c-3.1,0-5.5,2.5-5.5,5.5
			C540.6,471.8,543.1,474.2,546.1,474.2"/>
		<path style="fill:#00A8B5;" d="M631.2,435.1c3.1,0,5.5-2.5,5.5-5.5c0-3.1-2.5-5.5-5.5-5.5c-3.1,0-5.5,2.5-5.5,5.5
			C625.6,432.6,628.1,435.1,631.2,435.1"/>
	</g>
</g>
<g id="Bob_3" style="display:none;">
	<g style="display:inline;">
		<path style="fill:#00354E;" d="M633.5,324.2c0,0,106.2,0,106.2,106.2v13.3c0,0,0,106.2-106.2,106.2h-88.1c0,0-106.2,0-106.2-106.2
			v-13.3c0,0,0-106.2,106.2-106.2H633.5z"/>
		<path style="fill:#00A8B5;" d="M561.3,449.4c2.9,0,5.3-2.4,5.3-5.3c0-2.9-2.4-5.3-5.3-5.3c-2.9,0-5.3,2.4-5.3,5.3l0,0
			C556,447,558.4,449.4,561.3,449.4L561.3,449.4"/>
		<path style="fill:#00A8B5;" d="M615.8,449.4c2.9,0,5.3-2.4,5.3-5.3c0-2.9-2.4-5.3-5.3-5.3c-2.9,0-5.3,2.4-5.3,5.3l0,0
			C610.5,447,612.9,449.4,615.8,449.4L615.8,449.4"/>
		<path style="fill:#00A8B5;" d="M547.7,430.6c2.9,0,5.3-2.4,5.3-5.3c0-2.9-2.4-5.3-5.3-5.3c-2.9,0-5.3,2.4-5.3,5.3l0,0
			C542.5,428.2,544.8,430.6,547.7,430.6"/>
		<path style="fill:#00A8B5;" d="M534.1,430.6c2.9,0,5.3-2.4,5.3-5.3c0-2.9-2.4-5.3-5.3-5.3c-2.9,0-5.3,2.4-5.3,5.3l0,0
			C528.8,428.2,531.2,430.6,534.1,430.6L534.1,430.6"/>
		<path style="fill:#00A8B5;" d="M643.1,430.6c2.9,0,5.3-2.4,5.3-5.3c0-2.9-2.4-5.3-5.3-5.3c-2.9,0-5.3,2.4-5.3,5.3l0,0
			C637.9,428.2,640.2,430.6,643.1,430.6"/>
		<path style="fill:#00A8B5;" d="M656.7,449.4c2.9,0,5.3-2.4,5.3-5.3c0-2.9-2.4-5.3-5.3-5.3c-2.9,0-5.3,2.4-5.3,5.3l0,0
			C651.4,447,653.8,449.4,656.7,449.4L656.7,449.4"/>
		<path style="fill:#00A8B5;" d="M520.4,449.4c2.9,0,5.3-2.4,5.3-5.3c0-2.9-2.4-5.3-5.3-5.3c-2.9,0-5.3,2.4-5.3,5.3l0,0
			C515.1,447,517.5,449.4,520.4,449.4L520.4,449.4"/>
		<path style="fill:#00A8B5;" d="M629.5,430.6c2.9,0,5.3-2.4,5.3-5.3c0-2.9-2.4-5.3-5.3-5.3c-2.9,0-5.3,2.4-5.3,5.3l0,0
			C624.2,428.2,626.6,430.6,629.5,430.6L629.5,430.6"/>
	</g>
	<g style="display:inline;">

			<line style="fill:none;stroke:#FFFFFF;stroke-width:16.1978;stroke-linecap:round;" x1="254.4" y1="112.7" x2="335.4" y2="193.7"/>
		<line style="fill:none;stroke:#FFFFFF;stroke-width:16.1978;stroke-linecap:round;" x1="371.8" y1="52" x2="371.8" y2="166.5"/>

			<line style="fill:none;stroke:#FFFFFF;stroke-width:16.1978;stroke-linecap:round;" x1="208.9" y1="239.3" x2="323.4" y2="239.3"/>
	</g>
	<g style="display:inline;">

			<line style="fill:none;stroke:#FFFFFF;stroke-width:16.1978;stroke-linecap:round;" x1="912.1" y1="112.7" x2="831.1" y2="193.7"/>
		<line style="fill:none;stroke:#FFFFFF;stroke-width:16.1978;stroke-linecap:round;" x1="794.6" y1="52" x2="794.6" y2="166.5"/>
		<line style="fill:none;stroke:#FFFFFF;stroke-width:16.1978;stroke-linecap:round;" x1="957.6" y1="239.3" x2="843" y2="239.3"/>
	</g>
</g>
<g id="Bob_4" style="display:none;">
	<path style="display:inline;fill:none;stroke:#FFFFFF;stroke-width:11.71;" d="M995.1,441.9c0,0-46.2,89.9-181.7,105.4"/>
	<path style="display:inline;fill:#FFFFFF;" d="M1027.4,430.3c0,15.2-12.3,27.5-27.5,27.5s-27.5-12.3-27.5-27.5s10.8-2.2,26-2.2
		C1013.6,428.1,1027.4,415.1,1027.4,430.3L1027.4,430.3"/>
	<g style="display:inline;">
		<g>
			<path style="fill:#FFFFFF;" d="M1031.4,155.7H915.7c-11.3,0-20.3,9.1-20.3,20.3v235.1c0,11.3,9.1,20.3,20.3,20.3h115.7
				c11.3,0,20.3-9.1,20.3-20.3V176C1051.7,164.8,1042.6,155.7,1031.4,155.7z M904.7,192.7h137.7v174.7H904.7V192.7z M915.7,165
				h115.7c6.1,0,11,4.9,11,11v7.3H904.7V176C904.7,169.9,909.5,165,915.7,165z M1031.4,422.4H915.7c-6.1,0-11-4.9-11-11v-35h137.7
				v35C1042.4,417.2,1037.5,422.4,1031.4,422.4z"/>
			<path style="fill:#FFFFFF;" d="M973.6,381c-10,0-18.3,8.3-18.3,18.3s8.3,18.3,18.3,18.3s18.3-8.3,18.3-18.3S983.7,381,973.6,381z
				 M973.6,408.4c-5.1,0-9.3-4.2-9.3-9.3s4.2-9.3,9.3-9.3s9.3,4.2,9.3,9.3C982.7,404.3,978.5,408.4,973.6,408.4z"/>
			<path style="fill:#FFFFFF;" d="M955.3,178.7h18.3c2.4,0,4.6-2,4.6-4.6c0-2.7-2-4.6-4.6-4.6h-18.3c-2.4,0-4.6,2-4.6,4.6
				C950.6,176.8,952.6,178.7,955.3,178.7z"/>
			<path style="fill:#FFFFFF;" d="M987.3,178.7h4.6c2.4,0,4.6-2,4.6-4.6c0-2.7-2-4.6-4.6-4.6h-4.6c-2.4,0-4.6,2-4.6,4.6
				C982.7,176.8,984.9,178.7,987.3,178.7z"/>
		</g>
		<path style="fill:#FFFFFF;" d="M1128.5,108c-2.8-2.8-7.6-2.8-10.8,0c-2.8,2.8-2.8,7.6,0,10.8c28,28,28,73.5,0,101.8
			c-2.8,2.8-2.8,7.6,0,10.8c1.6,1.6,3.2,2.4,5.2,2.4s4-0.8,5.2-2.4C1162.4,197.1,1162.4,142,1128.5,108z"/>
		<path style="fill:#FFFFFF;" d="M1096.9,125.2c-2.8-2.8-7.6-2.8-10.8,0c-2.8,2.8-2.8,7.6,0,10.8c9.2,9.2,14.4,21.6,14.4,34.7
			c0,13.2-5.2,25.6-14.4,34.7c-2.8,2.8-2.8,7.6,0,10.8c1.6,1.6,3.2,2.4,5.2,2.4s4-0.8,5.2-2.4c12-12,18.8-28.4,18.8-45.5
			C1115.3,153.5,1109.3,137.2,1096.9,125.2z"/>
		<path style="fill:#FFFFFF;" d="M828.9,118.8c2.8-2.8,2.8-7.6,0-10.8c-2.8-2.8-7.6-2.8-10.8,0c-33.9,33.9-33.9,89.1,0,123
			c1.6,1.6,3.2,2.4,5.2,2.4s4-0.8,5.2-2.4c2.8-2.8,2.8-7.6,0-10.8C801,192.3,801,146.7,828.9,118.8z"/>
		<path style="fill:#FFFFFF;" d="M860.9,123.2c-2.8-2.8-7.6-2.8-10.8,0c-12,12-18.8,28.4-18.8,45.5s6.8,33.1,18.8,45.5
			c1.6,1.6,3.2,2.4,5.2,2.4s4-0.8,5.2-2.4c2.8-2.8,2.8-7.6,0-10.8c-9.2-9.2-14.4-21.6-14.4-34.7s5.2-25.6,14.4-34.7
			C863.7,130.8,863.7,126,860.9,123.2z"/>
	</g>
	<g style="display:inline;">
		<path style="fill:#00354E;" d="M633.5,324.2c0,0,106.2,0,106.2,106.2v13.3c0,0,0,106.2-106.2,106.2h-88.1c0,0-106.2,0-106.2-106.2
			v-13.3c0,0,0-106.2,106.2-106.2H633.5z"/>
		<path style="fill:#00A8B5;" d="M561.3,449.4c2.9,0,5.3-2.4,5.3-5.3c0-2.9-2.4-5.3-5.3-5.3c-2.9,0-5.3,2.4-5.3,5.3l0,0
			C556,447,558.4,449.4,561.3,449.4L561.3,449.4"/>
		<path style="fill:#00A8B5;" d="M615.8,449.4c2.9,0,5.3-2.4,5.3-5.3c0-2.9-2.4-5.3-5.3-5.3c-2.9,0-5.3,2.4-5.3,5.3l0,0
			C610.5,447,612.9,449.4,615.8,449.4L615.8,449.4"/>
		<path style="fill:#00A8B5;" d="M547.7,430.6c2.9,0,5.3-2.4,5.3-5.3c0-2.9-2.4-5.3-5.3-5.3c-2.9,0-5.3,2.4-5.3,5.3l0,0
			C542.5,428.2,544.8,430.6,547.7,430.6"/>
		<path style="fill:#00A8B5;" d="M534.1,430.6c2.9,0,5.3-2.4,5.3-5.3c0-2.9-2.4-5.3-5.3-5.3c-2.9,0-5.3,2.4-5.3,5.3l0,0
			C528.8,428.2,531.2,430.6,534.1,430.6L534.1,430.6"/>
		<path style="fill:#00A8B5;" d="M643.1,430.6c2.9,0,5.3-2.4,5.3-5.3c0-2.9-2.4-5.3-5.3-5.3c-2.9,0-5.3,2.4-5.3,5.3l0,0
			C637.9,428.2,640.2,430.6,643.1,430.6"/>
		<path style="fill:#00A8B5;" d="M656.7,449.4c2.9,0,5.3-2.4,5.3-5.3c0-2.9-2.4-5.3-5.3-5.3c-2.9,0-5.3,2.4-5.3,5.3l0,0
			C651.4,447,653.8,449.4,656.7,449.4L656.7,449.4"/>
		<path style="fill:#00A8B5;" d="M520.4,449.4c2.9,0,5.3-2.4,5.3-5.3c0-2.9-2.4-5.3-5.3-5.3c-2.9,0-5.3,2.4-5.3,5.3l0,0
			C515.1,447,517.5,449.4,520.4,449.4L520.4,449.4"/>
		<path style="fill:#00A8B5;" d="M629.5,430.6c2.9,0,5.3-2.4,5.3-5.3c0-2.9-2.4-5.3-5.3-5.3c-2.9,0-5.3,2.4-5.3,5.3l0,0
			C624.2,428.2,626.6,430.6,629.5,430.6L629.5,430.6"/>
	</g>
</g>
<g id="Bob_5">
	<g>
		<path style="fill:#00354E;" d="M632.2,324.2c0,0,107.4,0,107.4,107.4v10.6c0,0,0,107.4-107.4,107.4h-85.4c0,0-107.4,0-107.4-107.4
			v-10.6c0,0,0-107.4,107.4-107.4H632.2z"/>
		<path style="fill:#00A8B5;" d="M533,414.2c3,0,5.5-2.5,5.5-5.5s-2.5-5.5-5.5-5.5s-5.5,2.5-5.5,5.5
			C527.5,411.8,529.9,414.2,533,414.2"/>
		<path style="fill:#00A8B5;" d="M547.1,414.2c3,0,5.5-2.5,5.5-5.5s-2.5-5.5-5.5-5.5s-5.5,2.5-5.5,5.5
			C541.6,411.8,544.1,414.2,547.1,414.2"/>
		<path style="fill:#00A8B5;" d="M561.2,414.2c3,0,5.5-2.5,5.5-5.5s-2.5-5.5-5.5-5.5s-5.5,2.5-5.5,5.5
			C555.7,411.8,558.2,414.2,561.2,414.2"/>
		<path style="fill:#00A8B5;" d="M575.4,414.2c3,0,5.5-2.5,5.5-5.5s-2.5-5.5-5.5-5.5s-5.5,2.5-5.5,5.5
			C569.9,411.8,572.3,414.2,575.4,414.2"/>
		<path style="fill:#00A8B5;" d="M561.2,394.7c3,0,5.5-2.5,5.5-5.5s-2.5-5.5-5.5-5.5s-5.5,2.5-5.5,5.5
			C555.7,392.3,558.2,394.7,561.2,394.7"/>
		<path style="fill:#00A8B5;" d="M561.2,492.3c3,0,5.5-2.5,5.5-5.5s-2.5-5.5-5.5-5.5s-5.5,2.5-5.5,5.5S558.2,492.3,561.2,492.3"/>
		<path style="fill:#00A8B5;" d="M533,453.3c3,0,5.5-2.5,5.5-5.5s-2.5-5.5-5.5-5.5s-5.5,2.5-5.5,5.5S529.9,453.3,533,453.3"/>
		<path style="fill:#00A8B5;" d="M547.1,453.3c3,0,5.5-2.5,5.5-5.5s-2.5-5.5-5.5-5.5s-5.5,2.5-5.5,5.5S544.1,453.3,547.1,453.3"/>
		<path style="fill:#00A8B5;" d="M561.2,453.3c3,0,5.5-2.5,5.5-5.5s-2.5-5.5-5.5-5.5s-5.5,2.5-5.5,5.5S558.2,453.3,561.2,453.3"/>
		<path style="fill:#00A8B5;" d="M575.4,453.3c3,0,5.5-2.5,5.5-5.5s-2.5-5.5-5.5-5.5s-5.5,2.5-5.5,5.5S572.3,453.3,575.4,453.3"/>
		<path style="fill:#00A8B5;" d="M533,492.3c3,0,5.5-2.5,5.5-5.5s-2.5-5.5-5.5-5.5s-5.5,2.5-5.5,5.5S529.9,492.3,533,492.3"/>
		<path style="fill:#00A8B5;" d="M589.5,492.3c3,0,5.5-2.5,5.5-5.5s-2.5-5.5-5.5-5.5s-5.5,2.5-5.5,5.5S586.5,492.3,589.5,492.3"/>
		<path style="fill:#00A8B5;" d="M547.1,433.8c3,0,5.5-2.5,5.5-5.5s-2.5-5.5-5.5-5.5s-5.5,2.5-5.5,5.5S544.1,433.8,547.1,433.8"/>
		<path style="fill:#00A8B5;" d="M561.2,433.8c3,0,5.5-2.5,5.5-5.5s-2.5-5.5-5.5-5.5s-5.5,2.5-5.5,5.5S558.2,433.8,561.2,433.8"/>
		<path style="fill:#00A8B5;" d="M518.8,492.3c3,0,5.5-2.5,5.5-5.5s-2.5-5.5-5.5-5.5s-5.5,2.5-5.5,5.5S515.8,492.3,518.8,492.3"/>
		<path style="fill:#00A8B5;" d="M575.4,472.8c3,0,5.5-2.5,5.5-5.5s-2.5-5.5-5.5-5.5s-5.5,2.5-5.5,5.5S572.3,472.8,575.4,472.8"/>
		<path style="fill:#00A8B5;" d="M589.5,472.8c3,0,5.5-2.5,5.5-5.5s-2.5-5.5-5.5-5.5s-5.5,2.5-5.5,5.5S586.5,472.8,589.5,472.8"/>
		<path style="fill:#00A8B5;" d="M575.4,492.3c3,0,5.5-2.5,5.5-5.5s-2.5-5.5-5.5-5.5s-5.5,2.5-5.5,5.5S572.3,492.3,575.4,492.3"/>
		<path style="fill:#00A8B5;" d="M547.1,394.7c3,0,5.5-2.5,5.5-5.5s-2.5-5.5-5.5-5.5s-5.5,2.5-5.5,5.5
			C541.6,392.3,544.1,394.7,547.1,394.7"/>
		<path style="fill:#00A8B5;" d="M547.1,472.8c3,0,5.5-2.5,5.5-5.5s-2.5-5.5-5.5-5.5s-5.5,2.5-5.5,5.5S544.1,472.8,547.1,472.8"/>
		<path style="fill:#00A8B5;" d="M561.2,472.8c3,0,5.5-2.5,5.5-5.5s-2.5-5.5-5.5-5.5s-5.5,2.5-5.5,5.5S558.2,472.8,561.2,472.8"/>
		<path style="fill:#00A8B5;" d="M533,472.8c3,0,5.5-2.5,5.5-5.5s-2.5-5.5-5.5-5.5s-5.5,2.5-5.5,5.5S529.9,472.8,533,472.8"/>
		<path style="fill:#00A8B5;" d="M518.8,472.8c3,0,5.5-2.5,5.5-5.5s-2.5-5.5-5.5-5.5s-5.5,2.5-5.5,5.5S515.8,472.8,518.8,472.8"/>
		<path style="fill:#00A8B5;" d="M547.1,492.3c3,0,5.5-2.5,5.5-5.5s-2.5-5.5-5.5-5.5s-5.5,2.5-5.5,5.5S544.1,492.3,547.1,492.3"/>
		<path style="fill:#00FFAB;" d="M669,411.6c3,0,5.5-2.5,5.5-5.5s-2.5-5.5-5.5-5.5s-5.5,2.5-5.5,5.5S666,411.6,669,411.6"/>
		<path style="fill:#00FFAB;" d="M612.5,450.6c3,0,5.5-2.5,5.5-5.5s-2.5-5.5-5.5-5.5s-5.5,2.5-5.5,5.5S609.4,450.6,612.5,450.6"/>
		<path style="fill:#00FFAB;" d="M640.8,450.6c3,0,5.5-2.5,5.5-5.5s-2.5-5.5-5.5-5.5s-5.5,2.5-5.5,5.5
			C635.2,448.1,637.7,450.6,640.8,450.6"/>
		<path style="fill:#00FFAB;" d="M654.9,431.1c3,0,5.5-2.5,5.5-5.5s-2.5-5.5-5.5-5.5s-5.5,2.5-5.5,5.5S651.8,431.1,654.9,431.1"/>
		<path style="fill:#00FFAB;" d="M626.6,470.1c3,0,5.5-2.5,5.5-5.5s-2.5-5.5-5.5-5.5s-5.5,2.5-5.5,5.5
			C621.1,467.7,623.6,470.1,626.6,470.1"/>
	</g>
</g>
</svg>
