<?xml version="1.0" encoding="utf-8"?>
<!-- Generator: Adobe Illustrator 24.3.0, SVG Export Plug-In . SVG Version: 6.00 Build 0)  -->
<svg version="1.1" id="Livello_1" xmlns="http://www.w3.org/2000/svg" xmlns:xlink="http://www.w3.org/1999/xlink" x="0px" y="0px"
	 viewBox="0 0 1173.1 2532" style="enable-background:new 0 0 1173.1 2532;" xml:space="preserve">
<style type="text/css">
	.st0{fill:url(#SVGID_1_);}
	.st1{fill:none;}
	.st2{clip-path:url(#SVGID_3_);}
	.st3{fill:#FFFFFF;}
	.st4{fill:none;stroke:#FFFFFF;stroke-width:11.71;}
	.st5{fill:#00354E;}
	.st6{fill:#00A8B5;}
	.st7{fill:#CD2D25;}
	.st8{fill:#FF5252;}
	.st9{font-family:'OpenSans-Bold';}
	.st10{font-size:135.4149px;}
	.st11{font-family:'OpenSans';}
	.st12{font-size:76px;}
	.st13{enable-background:new    ;}
	.st14{font-size:50px;}
	.st15{font-size:46.0377px;}
</style>
<g id="Livello_1_2_">

		<linearGradient id="SVGID_1_" gradientUnits="userSpaceOnUse" x1="582.52" y1="-4153.3999" x2="582.52" y2="-2984.0999" gradientTransform="matrix(1 0 0 1 2.73 4076)">
		<stop  offset="0" style="stop-color:#27627D"/>
		<stop  offset="0.13" style="stop-color:#226B84"/>
		<stop  offset="0.35" style="stop-color:#148498"/>
		<stop  offset="0.6" style="stop-color:#00A8B5"/>
		<stop  offset="0.7" style="stop-color:#13AFB6"/>
		<stop  offset="0.92" style="stop-color:#43C0B7"/>
		<stop  offset="1" style="stop-color:#57C7B8"/>
	</linearGradient>
	<path class="st0" d="M1179.1-77.4H-8.6V945c164,92,370,146.9,593.8,146.9s429.9-54.8,593.8-146.9L1179.1-77.4L1179.1-77.4z"/>
	<path class="st1" d="M1173.1,866.8L1171.9-60H1.9L0,850.8c155.6,219.3,520.9,236,627.8,236.4
		C808.7,1087.8,1095.6,977.8,1173.1,866.8z"/>
	<g>
		<g>
			<g>
				<g>
					<defs>
						<path id="SVGID_2_" d="M1172.7-60H2.7V947.2c161.5,90.7,364.5,144.7,585,144.7s423.5-54,585-144.7V-60z"/>
					</defs>
					<clipPath id="SVGID_3_">
						<use xlink:href="#SVGID_2_"  style="overflow:visible;"/>
					</clipPath>
					<g class="st2">
						<g id="BOB_9_">
							<path class="st3" d="M594.5,329.9c0,0,222.2,0,222.2,222.2v547.3c0,0,0,222.2-222.2,222.2h-11.1c0,0-222.2,0-222.2-222.2
								V552.1c0,0,0-222.2,222.2-222.2L594.5,329.9z"/>
							<path class="st3" d="M515.4,246.9c-30,0-54.4-24.4-54.4-54.4s24.4-54.4,54.4-54.4s54.4,24.4,54.4,54.4
								C569.8,222.5,545.5,246.9,515.4,246.9"/>
							<path class="st4" d="M516.2,203.9c0,0,80.5,61.1,72.2,197.2"/>
							<path class="st5" d="M633,461.8c0,0,106.2,0,106.2,106.2v13.3c0,0,0,106.2-106.2,106.2h-88.1c0,0-106.2,0-106.2-106.2V568
								c0,0,0-106.2,106.2-106.2H633z"/>
							<path class="st6" d="M560.8,587c2.9,0,5.3-2.4,5.3-5.3c0-2.9-2.4-5.3-5.3-5.3c-2.9,0-5.3,2.4-5.3,5.3l0,0
								C555.5,584.6,557.9,587,560.8,587L560.8,587"/>
							<path class="st6" d="M615.3,587c2.9,0,5.3-2.4,5.3-5.3c0-2.9-2.4-5.3-5.3-5.3c-2.9,0-5.3,2.4-5.3,5.3l0,0
								C610,584.6,612.4,587,615.3,587L615.3,587"/>
							<path class="st6" d="M547.2,568.2c2.9,0,5.3-2.4,5.3-5.3c0-2.9-2.4-5.3-5.3-5.3c-2.9,0-5.3,2.4-5.3,5.3l0,0
								C542,565.8,544.3,568.2,547.2,568.2"/>
							<path class="st6" d="M533.6,568.2c2.9,0,5.3-2.4,5.3-5.3c0-2.9-2.4-5.3-5.3-5.3c-2.9,0-5.3,2.4-5.3,5.3l0,0
								C528.3,565.8,530.7,568.2,533.6,568.2L533.6,568.2"/>
							<path class="st6" d="M642.6,568.2c2.9,0,5.3-2.4,5.3-5.3c0-2.9-2.4-5.3-5.3-5.3c-2.9,0-5.3,2.4-5.3,5.3l0,0
								C637.4,565.8,639.7,568.2,642.6,568.2"/>
							<path class="st6" d="M656.2,587c2.9,0,5.3-2.4,5.3-5.3c0-2.9-2.4-5.3-5.3-5.3c-2.9,0-5.3,2.4-5.3,5.3l0,0
								C650.9,584.6,653.3,587,656.2,587L656.2,587"/>
							<path class="st6" d="M519.9,587c2.9,0,5.3-2.4,5.3-5.3s-2.4-5.3-5.3-5.3c-2.9,0-5.3,2.4-5.3,5.3l0,0
								C514.6,584.6,517,587,519.9,587L519.9,587"/>
							<path class="st6" d="M629,568.2c2.9,0,5.3-2.4,5.3-5.3c0-2.9-2.4-5.3-5.3-5.3c-2.9,0-5.3,2.4-5.3,5.3l0,0
								C623.7,565.8,626.1,568.2,629,568.2L629,568.2"/>
						</g>
					</g>
				</g>
			</g>
		</g>
	</g>
	<g>
		<path class="st7" d="M390.5,994.9c70.4-17.1,112.8-91.7,94.6-166.8c-18.1-75-109.8-150.7-180.2-133.6S104.5,824.3,122.7,899.3
			S320.1,1012,390.5,994.9"/>
		<path class="st3" d="M208.4,822.8c-1.8,0-2.7-0.9-2.7-2.7c0.2-1.8-0.6-3.5-1.9-4.7c-1.2-1-2.8-1.5-4.4-1.4
			c-1.6-0.1-3.2,0.3-4.6,1.1c-1.2,0.7-2.2,1.8-3,2.9c-1.5,2.5-2.2,5.3-2.2,8.3c0,6.1,1.8,10.1,5.5,11.9c1.4,0.7,2.9,1,4.4,1
			c1.4,0.1,2.7-0.2,4-0.6c1-0.3,1.9-0.7,2.8-1.2c0.8-0.4,1.5-0.8,2.2-1.2c0.5-0.3,1-0.5,1.5-0.6c0.8,0,1.5,0.4,1.9,1.1l0.7,1.2
			c0.3,0.5,0.5,1.1,0.5,1.7c0,0.6-0.2,1.2-0.6,1.7c-0.5,0.6-1.1,1.1-1.8,1.6c-0.8,0.6-1.7,1-2.6,1.4c-1,0.4-1.9,0.7-3,1
			c-4.9,1.3-9.3,1.1-13.3-0.6c-4.5-1.8-7.9-5.6-9.3-10.2c-0.9-2.6-1.4-5.4-1.3-8.2c0-2.8,0.4-5.5,1.4-8.1c0.8-2.2,2.1-4.3,3.8-6.1
			c3.3-3.4,7.6-5.1,12.9-5.1c4.7,0,8.3,1.2,10.8,3.7c2.1,2.1,3.3,5,3.2,7.9c0,2.7-1.4,4-4.2,4h-0.8v0.2H208.4z"/>
		<path class="st3" d="M249.9,843.7c0.2,0.8-0.4,1.6-1.3,1.8c-0.2,0-0.3,0-0.5,0h-3.2c-0.9,0-1.4-0.2-1.6-0.5
			c-0.2-0.3-0.3-0.6-0.3-1s-0.1-0.7-0.2-1c-0.2-1.1-0.3-2.2-0.6-3.5c-1.7,3.1-4.6,5.4-8.1,6.3c-1.4,0.4-2.9,0.6-4.3,0.6
			c-1.6,0-3.2-0.2-4.7-0.8c-1.5-0.5-3-1.3-4.2-2.3c-2.7-2.2-4.2-5.6-4.2-9.1c0-4.1,1.5-7.3,4.6-9.4c2.5-1.8,5.7-2.6,9.6-2.6
			c3.6-0.1,7.1,1.1,9.9,3.4c0.1-0.7,0.1-1.7,0.1-2.8s-0.2-2.3-0.6-3.4s-1-2-1.9-2.8c-1.7-1.5-4.1-2.2-7-2.2s-5.7,0.8-8.2,2.2
			c-0.4,0.2-1,0.4-1.4,0.4c-0.6,0-1.2-0.6-1.8-1.8c-0.5-0.8-0.8-1.7-0.9-2.6c0-1,0.7-1.9,2.2-2.8c2.8-1.8,6.5-2.6,11.2-2.6
			c3.8-0.1,7.6,1.1,10.6,3.5c3.3,2.8,5,6.7,5,11.8c-0.1,2.9-0.5,5.7-1.1,8.5C248.8,836.4,249.8,840.6,249.9,843.7z M227.6,829.6
			c-0.8,0.5-1.4,1.2-1.9,2c-0.4,0.7-0.6,1.5-0.6,2.3s0.2,1.7,0.5,2.4s0.8,1.3,1.4,1.8c1.1,1,2.6,1.4,4.1,1.4
			c1.3,0.1,2.6-0.2,3.8-0.6c1-0.3,1.8-0.8,2.6-1.4c1.5-1.2,2.3-2.5,2.3-3.8c-0.2-1.7-1.2-3.2-2.8-3.9c-1.7-1-3.5-1.4-5.4-1.4
			C230.1,828.6,228.8,828.9,227.6,829.6z"/>
		<path class="st3" d="M264.2,836.4c0,1.6,0.6,2.4,1.7,2.4c0.5,0,1-0.2,1.4-0.3c0.6-0.2,1.2-0.5,1.8-0.6c0.5,0,0.9,0.3,1.2,1l1,2.4
			c0.2,0.3,0.2,0.6,0.2,1c0,0.5-0.4,1.1-1.3,1.8c-1.9,1.4-4.2,2.2-6.6,2.1c-5,0-7.4-3.4-7.4-10v-47.4c0-0.6,0.2-1.1,0.6-1.5
			c0.3-0.4,0.8-0.6,1.3-0.6h4.5c0.5,0,1,0.2,1.3,0.6c0.3,0.4,0.5,1,0.5,1.5L264.2,836.4L264.2,836.4z"/>
		<path class="st3" d="M283.5,836.4c0,1.6,0.6,2.4,1.7,2.4c0.5,0,1-0.2,1.4-0.3c0.6-0.2,1.2-0.5,1.8-0.6c0.5,0,0.9,0.3,1.2,1l1,2.4
			c0.2,0.3,0.2,0.6,0.2,1c0,0.5-0.4,1.1-1.3,1.8c-1.9,1.4-4.2,2.2-6.6,2.1c-5,0-7.4-3.4-7.4-10v-47.4c0-0.6,0.2-1.1,0.6-1.5
			c0.3-0.4,0.8-0.6,1.3-0.6h4.5c0.5,0,1,0.2,1.3,0.6s0.5,1,0.5,1.5L283.5,836.4L283.5,836.4z"/>
		<path class="st3" d="M310.1,797.3c-0.2-1.4,0.8-2.6,2.2-2.9c0.2,0,0.3,0,0.5,0h15.5c3.9-0.1,7.7,0.9,11.1,2.8
			c3.8,2.2,5.6,5.6,5.6,10.1c0.1,2.8-0.9,5.6-2.6,7.7c-1.6,1.8-3.8,3-6.1,3.4v0.2c3,0,6.1,1,8.5,3c2.6,2.1,4,5.3,3.8,8.5
			c0,5.3-1.9,9.2-5.7,11.8c-3.4,2.3-7.9,3.5-13.7,3.5h-16.3c-0.8,0.1-1.5-0.3-2-0.9c-0.4-0.6-0.6-1.3-0.6-2v-45.2H310.1z
			 M318.4,816.2c3.4,0,6.1-0.1,8.1-0.2c3.4-0.2,5.9-1,7.5-2.3s2.5-3.4,2.4-5.5c0-2.4-0.9-4.1-2.6-5.1s-4.2-1.5-7.6-1.5h-7.8V816.2z
			 M328.9,838.5c4.9,0,8.1-1.4,9.7-4.2c0.6-1.1,1-2.3,0.9-3.6c0.1-1.1-0.2-2.2-0.6-3.3c-0.4-0.8-0.9-1.5-1.5-2.1s-1.4-1-2.2-1.4
			c-0.9-0.3-1.8-0.6-2.7-0.8c-1.6-0.3-3.3-0.5-5-0.5c-2.1,0-4.3,0.1-6.6,0.2l-2.4,0.1v15.6H328.9L328.9,838.5z"/>
		<path class="st3" d="M353.5,826.6c0-2.7,0.5-5.3,1.4-7.9c0.9-2.3,2.2-4.4,4-6.1c3.5-3.6,8-5.3,13.3-5.3c6,0,10.7,1.8,14,5.3
			c3.2,3.4,4.8,8.1,4.8,14.2c0,5.8-1.8,10.5-5.4,14.2c-3.5,3.6-8.3,5.6-13.3,5.4c-5.7,0-10.2-1.8-13.7-5.6
			C355.2,837.1,353.5,832.5,353.5,826.6z M364.2,818.2c-0.8,1.3-1.4,2.7-1.8,4.2c-0.4,1.6-0.6,3.2-0.6,4.8s0.2,3.1,0.6,4.6
			c0.4,1.4,1,2.7,1.9,3.9c1.9,2.6,4.6,3.8,8,3.8s6.1-1.3,7.9-3.8c1.6-2.2,2.4-5.1,2.4-8.9c0-5.6-1.8-9.5-5.5-11.6
			c-1.5-0.8-3.2-1.3-4.9-1.2c-1.7,0-3.4,0.3-4.9,1.1C366.1,815.9,365.1,816.9,364.2,818.2L364.2,818.2z"/>
		<path class="st3" d="M400.4,845.5c-1.4,0-2-0.9-2-2.6v-54.3c0-0.6,0.2-1.1,0.5-1.5s0.8-0.6,1.3-0.6h4.6c0.5,0,1,0.2,1.3,0.6
			s0.5,1,0.5,1.5V813c2.9-3.9,6.9-5.8,12.2-5.8c4.9,0,8.5,1.8,11.1,5.3c2.3,3.3,3.5,7.6,3.5,12.9c0,6.3-1.5,11.3-4.6,15.2
			c-2.6,3.6-6.9,5.7-11.3,5.7c-2.4,0-4.8-0.6-6.9-1.7c-2.2-1.1-4-3-5.1-5.1c-0.1,0.7-0.1,1.4-0.2,2s-0.2,1.3-0.2,1.9
			c-0.1,1.4-1,2.1-2.7,2.1L400.4,845.5L400.4,845.5z M408.8,817.8c-1,1.2-1.7,2.6-2.1,4c-1,3.1-1,6.5,0,9.6c0.5,1.4,1.1,2.9,2,4.2
			c1.9,2.6,4.2,4,7.1,4c3,0.1,5.7-1.5,7.1-4.2s2-5.8,1.9-8.9c0-6-1.5-9.8-4.6-11.5c-1.2-0.6-2.6-1-3.9-0.9c-1.4,0-3,0.3-4.2,1
			C410.9,815.7,409.7,816.7,408.8,817.8z"/>
		<path class="st3" d="M436.9,842.2c-0.2-0.6-0.4-1.3-0.4-2s0.2-1.4,0.4-2.1s0.6-1.3,1.1-1.8c0.9-1,2.1-1.6,3.4-1.6
			c1-0.1,2,0.2,3,0.6c0.7,0.4,1.4,1,1.8,1.6c1,1.4,1.5,3,1.5,4.6s-0.2,3.1-0.5,4.6c-0.3,1.4-0.7,2.6-1.2,3.9c-1,2.4-2.3,4.6-3.9,6.5
			l-0.7,0.8c-1,1.1-1.8,1.7-2.4,1.7s-1.1-0.2-1.6-0.6l-1.2-1c-0.4-0.2-0.6-0.6-0.6-1c0.1-0.7,0.4-1.4,0.9-1.9
			c0.6-0.6,1.2-1.4,1.7-2.2c0.5-0.9,1-1.7,1.3-2.4c0.6-1.3,0.9-2.6,1-4.1C438.8,845.2,437.6,843.9,436.9,842.2z"/>
		<path class="st3" d="M208.4,895.9c-1.8,0-2.7-0.9-2.7-2.7c0.2-1.8-0.6-3.5-1.9-4.7c-1.2-1-2.8-1.5-4.4-1.4
			c-1.6-0.1-3.2,0.3-4.6,1.1c-1.2,0.7-2.2,1.8-3,2.9c-1.5,2.5-2.2,5.3-2.2,8.3c0,6.1,1.8,10.1,5.5,11.9c1.4,0.7,2.9,1,4.4,1
			c1.4,0.1,2.7-0.2,4-0.6c1-0.3,1.9-0.7,2.8-1.2c0.8-0.4,1.5-0.8,2.2-1.2c0.5-0.3,1-0.5,1.5-0.6c0.8,0,1.5,0.4,1.9,1.1l0.7,1.2
			c0.3,0.5,0.5,1.1,0.5,1.7c0,0.6-0.2,1.2-0.6,1.7c-0.5,0.6-1.1,1.1-1.8,1.6c-0.8,0.6-1.7,1-2.6,1.4c-1,0.4-1.9,0.7-3,1
			c-4.9,1.3-9.3,1.1-13.3-0.6c-4.5-1.8-7.9-5.6-9.3-10.2c-0.9-2.6-1.4-5.4-1.3-8.2c0-2.8,0.4-5.5,1.4-8.1c0.8-2.2,2.1-4.3,3.8-6.1
			c3.3-3.4,7.6-5.1,12.9-5.1c4.7,0,8.3,1.2,10.8,3.7c2.1,2.1,3.3,5,3.2,7.9c0,2.7-1.4,4-4.2,4h-0.8v0.2H208.4z"/>
		<path class="st3" d="M249.9,916.9c0.2,0.8-0.4,1.6-1.3,1.8c-0.2,0-0.3,0-0.5,0h-3.2c-0.9,0-1.4-0.2-1.6-0.5
			c-0.2-0.3-0.3-0.6-0.3-1c0-0.3-0.1-0.7-0.2-1c-0.2-1.1-0.3-2.2-0.6-3.5c-1.7,3.1-4.6,5.4-8.1,6.3c-1.4,0.4-2.9,0.6-4.3,0.6
			c-1.6,0-3.2-0.2-4.7-0.8c-1.5-0.5-3-1.3-4.2-2.3c-2.7-2.2-4.2-5.6-4.2-9.1c0-4.1,1.5-7.3,4.6-9.4c2.5-1.8,5.7-2.6,9.6-2.6
			c3.6-0.1,7.1,1.1,9.9,3.4c0.1-0.7,0.1-1.7,0.1-2.8s-0.2-2.3-0.6-3.4c-0.4-1-1-2-1.9-2.8c-1.7-1.5-4.1-2.2-7-2.2s-5.7,0.8-8.2,2.2
			c-0.4,0.2-1,0.4-1.4,0.4c-0.6,0-1.2-0.6-1.8-1.8c-0.5-0.8-0.8-1.7-0.9-2.6c0-1,0.7-1.9,2.2-2.8c2.8-1.8,6.5-2.6,11.2-2.6
			c3.8-0.1,7.6,1.1,10.6,3.5c3.3,2.8,5,6.7,5,11.8c-0.1,2.9-0.5,5.7-1.1,8.5C248.8,909.6,249.8,913.8,249.9,916.9z M227.6,902.8
			c-0.8,0.5-1.4,1.2-1.9,2c-0.4,0.7-0.6,1.5-0.6,2.3s0.2,1.7,0.5,2.4s0.8,1.3,1.4,1.8c1.1,1,2.6,1.4,4.1,1.4
			c1.3,0.1,2.6-0.2,3.8-0.6c1-0.3,1.8-0.8,2.6-1.4c1.5-1.2,2.3-2.5,2.3-3.8c-0.2-1.7-1.2-3.2-2.8-3.9c-1.7-1-3.5-1.4-5.4-1.4
			C230.1,901.7,228.7,902,227.6,902.8L227.6,902.8z"/>
		<path class="st3" d="M264.2,909.5c0,1.6,0.6,2.4,1.7,2.4c0.5,0,1-0.2,1.4-0.3c0.6-0.2,1.2-0.5,1.8-0.6c0.5,0,0.9,0.3,1.2,1l1,2.4
			c0.2,0.3,0.2,0.6,0.2,1c0,0.5-0.4,1.1-1.3,1.8c-1.9,1.4-4.2,2.2-6.6,2.1c-5,0-7.4-3.4-7.4-10v-47.4c0-0.6,0.2-1.1,0.6-1.5
			c0.3-0.4,0.8-0.6,1.3-0.6h4.5c0.5,0,1,0.2,1.3,0.6c0.3,0.4,0.5,1,0.5,1.5L264.2,909.5L264.2,909.5z"/>
		<path class="st3" d="M283.5,909.5c0,1.6,0.6,2.4,1.7,2.4c0.5,0,1-0.2,1.4-0.3c0.6-0.2,1.2-0.5,1.8-0.6c0.5,0,0.9,0.3,1.2,1l1,2.4
			c0.2,0.3,0.2,0.6,0.2,1c0,0.5-0.4,1.1-1.3,1.8c-1.9,1.4-4.2,2.2-6.6,2.1c-5,0-7.4-3.4-7.4-10v-47.4c0-0.6,0.2-1.1,0.6-1.5
			c0.3-0.4,0.8-0.6,1.3-0.6h4.5c0.5,0,1,0.2,1.3,0.6c0.3,0.4,0.5,1,0.5,1.5L283.5,909.5L283.5,909.5z"/>
		<path class="st3" d="M338.6,916.9c0.2,0.8-0.4,1.6-1.3,1.8c-0.2,0-0.3,0-0.5,0h-3.2c-0.9,0-1.4-0.2-1.6-0.5s-0.3-0.6-0.3-1
			c0-0.3-0.1-0.7-0.2-1c-0.2-1.1-0.3-2.2-0.6-3.5c-1.7,3.1-4.6,5.4-8.1,6.3c-1.4,0.4-2.9,0.6-4.3,0.6c-1.6,0-3.2-0.2-4.7-0.8
			c-1.5-0.5-3-1.3-4.2-2.3c-2.7-2.2-4.2-5.6-4.2-9.1c0-4.1,1.5-7.3,4.6-9.4c2.5-1.8,5.7-2.6,9.6-2.6c3.6-0.1,7.1,1.1,9.9,3.4
			c0.1-0.7,0.1-1.7,0.1-2.8s-0.2-2.3-0.6-3.4c-0.4-1-1-2-1.9-2.8c-1.7-1.5-4.1-2.2-7-2.2s-5.7,0.8-8.2,2.2c-0.4,0.2-1,0.4-1.4,0.4
			c-0.6,0-1.2-0.6-1.8-1.8c-0.5-0.8-0.8-1.7-0.9-2.6c0-1,0.7-1.9,2.2-2.8c2.8-1.8,6.5-2.6,11.2-2.6c3.8-0.1,7.6,1.1,10.6,3.5
			c3.3,2.8,5,6.7,5,11.8c-0.1,2.9-0.5,5.7-1.1,8.5C337.4,909.6,338.4,913.8,338.6,916.9z M316.2,902.8c-0.8,0.5-1.4,1.2-1.9,2
			c-0.4,0.7-0.6,1.5-0.6,2.3s0.2,1.7,0.5,2.4s0.8,1.3,1.4,1.8c1.1,1,2.6,1.4,4.1,1.4c1.3,0.1,2.6-0.2,3.8-0.6c1-0.3,1.8-0.8,2.6-1.4
			c1.5-1.2,2.3-2.5,2.3-3.8c-0.2-1.7-1.2-3.2-2.8-3.9c-1.7-1-3.5-1.4-5.4-1.4C318.7,901.7,317.3,902.1,316.2,902.8L316.2,902.8z"/>
		<path class="st3" d="M352.9,909.5c0,1.6,0.6,2.4,1.7,2.4c0.5,0,1-0.2,1.4-0.3c0.6-0.2,1.2-0.5,1.8-0.6c0.5,0,0.9,0.3,1.2,1l1,2.4
			c0.2,0.3,0.2,0.6,0.2,1c0,0.5-0.4,1.1-1.3,1.8c-1.9,1.4-4.2,2.2-6.6,2.1c-5,0-7.4-3.4-7.4-10v-47.4c0-0.6,0.2-1.1,0.6-1.5
			c0.3-0.4,0.8-0.6,1.3-0.6h4.5c0.5,0,1,0.2,1.3,0.6c0.3,0.4,0.5,1,0.5,1.5L352.9,909.5L352.9,909.5z"/>
		<path class="st3" d="M372.1,909.5c0,1.6,0.6,2.4,1.7,2.4c0.5,0,1-0.2,1.4-0.3c0.6-0.2,1.2-0.5,1.8-0.6c0.5,0,0.9,0.3,1.2,1l1,2.4
			c0.2,0.3,0.2,0.6,0.2,1c0,0.5-0.4,1.1-1.3,1.8c-1.9,1.4-4.2,2.2-6.6,2.1c-5,0-7.4-3.4-7.4-10v-47.4c0-0.6,0.2-1.1,0.6-1.5
			c0.3-0.4,0.8-0.6,1.3-0.6h4.5c0.5,0,1,0.2,1.3,0.6c0.3,0.4,0.5,1,0.5,1.5L372.1,909.5L372.1,909.5z"/>
		<path class="st3" d="M383,913.7c0-1.5,0.6-3,1.7-4.1c2.2-2.2,5.7-2.2,7.9-0.1l0.1,0.1c1.1,1,1.7,2.6,1.7,4.1s-0.6,3-1.7,4.2
			c-1,1.1-2.5,1.8-4,1.8c-1.5,0.1-3-0.6-4-1.8S383,915.2,383,913.7z M387.4,901.7c-0.5,0-1-0.2-1.3-0.6c-0.4-0.4-0.6-1-0.6-1.5
			l-1.7-31.7c0-0.6,0.2-1.1,0.6-1.5c0.3-0.4,0.8-0.6,1.3-0.6h5.7c0.6,0,1,0.2,1.4,0.6c0.3,0.4,0.5,1,0.5,1.5l-1.3,31.7
			c0,0.6-0.2,1.1-0.6,1.5c-0.3,0.4-0.8,0.6-1.3,0.6H387.4z"/>
	</g>
	<g>
		<path class="st5" d="M631.9,460.6c0,0,108.2,0,108.2,108.2v10.7c0,0,0,108.2-108.2,108.2h-85.8c0,0-108.2,0-108.2-108.2v-10.7
			c0,0,0-108.2,108.2-108.2L631.9,460.6L631.9,460.6z"/>
		<path class="st8" d="M530.4,555.4c2.8,0,5.6-2.2,5.6-5.6c0-2.8-2.2-5.6-5.6-5.6c-2.8,0-5.6,2.2-5.6,5.6
			C524.8,552.6,527.6,555.4,530.4,555.4"/>
		<path class="st8" d="M559,555.4c2.8,0,5.6-2.2,5.6-5.6c0-2.8-2.2-5.6-5.6-5.6c-2.8,0-5.6,2.2-5.6,5.6
			C553.4,552.6,556.2,555.4,559,555.4"/>
		<path class="st8" d="M616.2,555.4c2.8,0,5.6-2.2,5.6-5.6c0-2.8-2.2-5.6-5.6-5.6c-2.8,0-5.6,2.2-5.6,5.6
			C610.6,552.6,613.4,555.4,616.2,555.4"/>
		<path class="st8" d="M559,594.6c2.8,0,5.6-2.2,5.6-5.6c0-2.8-2.2-5.6-5.6-5.6c-2.8,0-5.6,2.2-5.6,5.6
			C553.4,591.8,556.2,594.6,559,594.6"/>
		<path class="st8" d="M530.4,594.6c2.8,0,5.6-2.2,5.6-5.6c0-2.8-2.2-5.6-5.6-5.6c-2.8,0-5.6,2.2-5.6,5.6
			C524.8,591.8,527.6,594.6,530.4,594.6"/>
		<path class="st8" d="M616.2,594.6c2.8,0,5.6-2.2,5.6-5.6c0-2.8-2.2-5.6-5.6-5.6c-2.8,0-5.6,2.2-5.6,5.6
			C610.6,591.8,613.4,594.6,616.2,594.6"/>
		<path class="st8" d="M545,575c2.8,0,5.6-2.2,5.6-5.6c0-2.8-2.2-5.6-5.6-5.6c-2.8,0-5.6,2.2-5.6,5.6C539.4,572.2,541.6,575,545,575
			"/>
		<path class="st8" d="M630.8,575c2.8,0,5.6-2.2,5.6-5.6c0-2.8-2.2-5.6-5.6-5.6c-2.8,0-5.6,2.2-5.6,5.6
			C625.2,572.2,627.4,575,630.8,575"/>
		<path class="st8" d="M644.8,555.4c2.8,0,5.6-2.2,5.6-5.6c0-2.8-2.2-5.6-5.6-5.6c-2.8,0-5.6,2.2-5.6,5.6
			C639.2,552.6,641.4,555.4,644.8,555.4"/>
		<path class="st8" d="M644.8,594.6c2.8,0,5.6-2.2,5.6-5.6c0-2.8-2.2-5.6-5.6-5.6c-2.8,0-5.6,2.2-5.6,5.6
			C639.2,591.8,641.4,594.6,644.8,594.6"/>
	</g>
	<g>

			<ellipse transform="matrix(0.1735 -0.9848 0.9848 0.1735 312.5061 1033.3033)" class="st7" cx="771.9" cy="330.5" rx="73" ry="73"/>
		<text transform="matrix(1 0 0 1 752.4326 379.4535)" class="st3 st9 st10">!</text>
	</g>
	<text transform="matrix(1 0 0 1 61.672 1231.0601)" class="st11 st12">Le notifiche non sono abilitate</text>
	<text transform="matrix(1 0 0 1 237.2503 1373.4833)" class="st13"><tspan x="0" y="0" class="st11 st14">È necessario consentire a Bob </tspan><tspan x="67.6" y="60" class="st11 st14">di inviarti notifiche push </tspan><tspan x="-19.8" y="120" class="st11 st14">altrimenti non potrà funzionare.</tspan></text>
	<g>
		<path class="st7" d="M766.3,1829h-353c-33.6,0-61.1-26.4-61.1-58.6v-12.8c0-32.2,27.5-58.6,61.1-58.6h353
			c33.6,0,61.1,26.4,61.1,58.6v12.8C827.4,1802.7,800.1,1829,766.3,1829z"/>
		<text transform="matrix(1 0 0 1 370.4331 1779.7833)" class="st3 st9 st15">Allow Notifications</text>
	</g>
</g>
</svg>
