<svg id="svg" version="1.1" xmlns="http://www.w3.org/2000/svg" xmlns:xlink="http://www.w3.org/1999/xlink" width="400"
     height="370.7317073170732" viewBox="0, 0, 400,370.7317073170732">
    <g id="svgg">
        <path id="path0"
              d="M271.324 9.747 C 269.773 11.398,265.306 19.781,265.306 21.042 C 265.306 22.164,266.278 23.983,274.580 38.404 C 276.603 41.919,277.690 43.672,278.202 44.249 C 279.079 45.236,302.925 45.220,304.107 44.231 C 305.115 43.388,310.577 34.018,310.569 33.144 C 310.556 31.592,310.436 31.575,298.419 31.463 L 286.843 31.354 285.937 30.427 C 285.438 29.917,282.653 25.325,279.747 20.223 C 273.239 8.797,272.767 8.210,271.324 9.747 M123.797 16.234 C 114.299 32.793,117.289 30.824,101.821 30.703 C 89.414 30.605,88.745 30.697,89.278 32.427 C 89.737 33.917,94.358 41.749,95.487 42.950 L 96.621 44.156 109.529 44.156 L 122.437 44.156 123.511 43.135 C 125.259 41.475,135.588 23.096,135.537 21.736 C 135.511 21.044,134.303 18.512,132.469 15.306 C 128.307 8.030,128.516 8.008,123.797 16.234 M200.000 12.877 C 199.694 12.997,197.273 14.349,194.620 15.881 C 191.967 17.413,187.329 20.084,184.313 21.815 C 176.753 26.155,176.994 25.791,176.994 32.843 C 176.994 41.443,177.199 41.646,182.673 38.457 C 201.212 27.652,200.413 28.053,202.050 28.737 C 203.251 29.239,211.848 34.107,216.685 37.024 C 223.119 40.905,223.377 40.737,223.377 32.667 C 223.377 24.764,223.822 25.438,215.399 20.582 C 213.358 19.406,209.581 17.224,207.005 15.734 C 202.270 12.995,201.010 12.481,200.000 12.877 M139.278 72.993 C 138.613 73.581,135.800 78.102,132.748 83.488 C 129.800 88.692,125.742 95.788,123.733 99.258 C 118.302 108.632,118.387 107.171,122.828 114.842 C 126.804 121.710,126.456 121.803,131.801 112.430 C 144.892 89.470,146.589 86.613,147.386 86.184 C 148.028 85.838,152.709 85.724,166.438 85.720 C 188.758 85.713,187.247 86.402,182.573 78.366 C 178.565 71.473,181.225 72.189,159.184 72.066 L 140.445 71.960 139.278 72.993 M221.984 72.989 C 220.679 73.241,214.471 83.036,214.471 84.844 C 214.471 86.459,214.444 86.456,234.619 86.456 L 253.877 86.456 254.860 87.521 C 255.401 88.107,257.919 92.239,260.455 96.705 C 268.066 110.105,272.763 118.151,273.303 118.711 C 274.314 119.761,275.423 118.618,278.355 113.500 C 282.251 106.700,282.282 107.399,277.740 99.643 C 276.062 96.778,273.225 91.846,271.436 88.683 C 264.819 76.982,262.699 73.584,261.749 73.151 C 260.849 72.741,224.052 72.591,221.984 72.989 M77.916 82.747 C 77.133 82.965,70.571 86.648,59.479 93.096 C 56.290 94.950,56.401 94.387,56.401 108.720 C 56.401 123.380,56.158 122.401,60.408 124.918 C 70.469 130.877,69.525 131.798,69.759 115.787 L 69.944 103.083 71.036 102.213 C 71.636 101.734,75.823 99.244,80.339 96.678 C 92.989 89.492,92.723 90.132,84.912 85.671 C 79.235 82.430,79.167 82.401,77.916 82.747 M314.677 86.049 C 306.622 90.722,305.893 89.547,322.820 99.175 C 326.391 101.207,329.773 103.353,330.334 103.945 L 331.354 105.021 331.354 116.472 C 331.354 130.951,330.766 130.195,338.541 125.713 C 345.352 121.786,344.712 123.513,344.712 109.037 L 344.712 96.779 343.667 95.862 C 343.092 95.358,339.377 93.095,335.411 90.834 C 331.445 88.572,326.781 85.912,325.046 84.920 C 320.890 82.546,320.674 82.570,314.677 86.049 M96.903 144.991 C 96.316 145.552,93.284 150.436,90.164 155.844 C 87.044 161.252,83.013 168.218,81.207 171.323 C 77.094 178.391,77.103 177.909,80.958 184.559 C 82.628 187.439,86.025 193.302,88.507 197.588 C 99.255 216.149,96.954 213.883,105.199 214.031 L 111.682 214.148 112.101 213.230 C 112.604 212.125,112.821 212.584,107.242 202.968 C 92.566 177.674,92.937 178.407,93.887 176.582 C 94.369 175.655,101.291 163.666,107.848 152.401 C 112.987 143.573,113.168 143.970,104.005 143.970 L 97.971 143.970 96.903 144.991 M288.293 144.731 C 287.538 145.486,287.538 145.501,288.246 146.679 C 290.439 150.326,298.279 163.831,303.844 173.547 C 307.820 180.488,308.212 178.595,299.820 192.950 C 288.315 212.631,288.411 212.443,289.288 213.412 C 290.041 214.244,300.859 214.454,302.579 213.670 C 303.582 213.213,304.388 212.048,307.802 206.122 C 310.497 201.445,318.872 186.966,320.963 183.370 C 323.304 179.344,324.095 181.419,312.801 161.967 C 310.313 157.681,307.092 152.107,305.643 149.580 C 302.357 143.849,302.591 143.970,294.817 143.970 C 289.501 143.970,288.995 144.029,288.293 144.731 M18.256 156.289 C 17.474 157.072,17.727 157.654,22.320 165.634 C 24.800 169.944,27.302 174.304,27.879 175.325 C 29.504 178.196,29.427 178.449,24.165 187.508 C 16.040 201.494,16.181 201.160,18.089 201.897 C 19.459 202.426,29.977 202.164,31.034 201.575 C 31.923 201.078,31.594 201.606,38.741 189.239 C 45.692 177.212,45.211 178.720,43.275 175.043 C 39.539 167.946,32.725 156.755,31.871 156.313 C 30.649 155.682,18.884 155.661,18.256 156.289 M368.777 156.842 C 368.239 157.416,365.922 161.141,363.628 165.121 C 361.333 169.100,358.644 173.726,357.650 175.399 C 354.922 179.997,354.335 178.307,365.089 196.846 C 368.258 202.308,367.744 202.041,375.091 202.041 C 383.786 202.041,383.775 202.056,379.784 195.219 C 369.890 178.269,370.468 180.250,373.767 174.583 C 380.205 163.520,383.035 158.558,383.308 157.854 C 383.952 156.194,383.390 156.037,376.357 155.915 L 369.755 155.799 368.777 156.842 M331.048 229.421 C 330.788 229.734,330.612 234.180,330.539 242.254 L 330.427 254.607 329.313 255.597 C 328.701 256.141,324.443 258.725,319.851 261.339 C 309.679 267.129,309.656 267.146,309.963 268.369 C 310.237 269.461,320.157 275.325,321.730 275.325 C 322.757 275.325,341.270 264.892,342.900 263.395 L 343.970 262.411 343.970 249.590 C 343.970 234.878,344.106 235.540,340.690 233.567 C 339.331 232.782,337.020 231.420,335.555 230.541 C 332.781 228.877,331.719 228.613,331.048 229.421 M62.317 231.953 C 59.777 233.404,57.240 235.022,56.679 235.547 L 55.659 236.502 55.659 248.794 L 55.659 261.086 56.679 262.027 C 57.606 262.881,62.106 265.563,74.250 272.495 C 79.567 275.531,79.192 275.542,85.144 272.158 C 93.464 267.428,93.641 267.968,81.506 261.044 C 69.517 254.203,69.868 254.443,69.409 252.791 C 69.180 251.964,69.020 246.967,69.019 240.578 C 69.016 227.177,69.525 227.832,62.317 231.953 M272.670 238.868 C 272.153 239.429,267.769 246.818,262.927 255.288 C 258.085 263.757,253.796 271.020,253.396 271.429 C 252.692 272.148,252.110 272.174,234.246 272.274 C 212.098 272.397,213.367 271.997,216.755 277.800 C 217.807 279.602,219.055 281.753,219.529 282.580 C 220.002 283.407,220.824 284.492,221.356 284.991 L 222.323 285.900 240.737 286.006 C 253.921 286.082,259.441 285.992,260.174 285.688 C 261.378 285.190,261.954 284.311,267.819 274.026 C 270.263 269.740,274.204 262.844,276.577 258.701 C 281.762 249.647,281.685 250.235,278.421 244.556 C 274.339 237.451,274.147 237.262,272.670 238.868 M124.960 239.653 C 123.855 240.966,119.655 248.367,119.082 250.011 C 118.597 251.403,118.236 250.684,127.802 267.347 C 136.308 282.162,136.889 283.140,137.785 284.137 L 138.534 284.972 158.303 284.972 C 171.902 284.972,178.353 284.845,178.969 284.564 C 179.878 284.150,182.237 280.480,184.897 275.341 C 186.975 271.326,188.423 271.614,166.144 271.614 C 150.476 271.614,147.098 271.524,146.243 271.082 C 145.479 270.686,143.807 268.083,139.749 260.970 C 126.084 237.017,126.578 237.730,124.960 239.653 M107.978 313.173 C 101.753 313.275,96.450 313.494,96.194 313.660 C 95.026 314.416,89.404 324.650,89.640 325.591 L 89.876 326.531 101.321 326.531 C 109.238 326.531,113.059 326.664,113.715 326.963 C 114.712 327.417,114.958 327.808,121.965 340.074 C 128.142 350.886,127.799 350.783,132.189 343.149 C 136.177 336.215,136.771 338.390,125.713 319.405 C 121.590 312.326,123.285 312.922,107.978 313.173 M276.884 314.564 C 276.472 314.921,274.891 317.384,273.371 320.037 C 271.851 322.690,269.298 327.115,267.697 329.870 C 264.194 335.899,264.149 336.296,266.517 340.260 C 267.431 341.790,268.744 344.027,269.434 345.229 C 271.972 349.652,271.927 349.686,278.526 338.204 C 285.570 325.946,283.218 327.273,297.909 327.273 C 311.389 327.273,311.703 327.223,310.942 325.221 C 310.136 323.099,305.320 315.028,304.529 314.474 C 303.229 313.563,277.943 313.646,276.884 314.564 M220.218 318.132 C 219.200 318.604,217.114 319.744,215.584 320.665 C 199.804 330.165,199.609 330.235,195.547 327.881 C 175.079 316.023,176.994 316.272,176.994 325.471 C 176.994 333.527,175.273 331.708,192.393 341.748 C 200.102 346.268,197.270 346.955,216.284 335.955 C 223.546 331.754,223.191 332.337,223.191 324.613 C 223.191 317.049,223.080 316.806,220.218 318.132 "
              stroke="none" fill="#ed5d5e" fill-rule="evenodd"></path>
<!--        <path id="path1"-->
<!--              d="M0.000 185.529 L 0.000 371.058 200.000 371.058 L 400.000 371.058 400.000 185.529 L 400.000 0.000 200.000 0.000 L 0.000 0.000 0.000 185.529 M273.526 9.926 C 274.041 10.487,276.841 15.121,279.747 20.223 C 282.653 25.325,285.438 29.917,285.937 30.427 L 286.843 31.354 298.419 31.463 C 310.436 31.575,310.556 31.592,310.569 33.144 C 310.577 34.018,305.115 43.388,304.107 44.231 C 302.925 45.220,279.079 45.236,278.202 44.249 C 277.690 43.672,276.603 41.919,274.580 38.404 C 263.560 19.262,264.257 21.689,267.920 15.211 C 271.610 8.684,272.026 8.293,273.526 9.926 M132.469 15.306 C 134.303 18.512,135.511 21.044,135.537 21.736 C 135.588 23.096,125.259 41.475,123.511 43.135 L 122.437 44.156 109.529 44.156 L 96.621 44.156 95.487 42.950 C 94.358 41.749,89.737 33.917,89.278 32.427 C 88.745 30.697,89.414 30.605,101.821 30.703 C 117.289 30.824,114.299 32.793,123.797 16.234 C 128.516 8.008,128.307 8.030,132.469 15.306 M207.005 15.734 C 209.581 17.224,213.358 19.406,215.399 20.582 C 223.822 25.438,223.377 24.764,223.377 32.667 C 223.377 40.737,223.119 40.905,216.685 37.024 C 211.848 34.107,203.251 29.239,202.050 28.737 C 200.413 28.053,201.212 27.652,182.673 38.457 C 177.199 41.646,176.994 41.443,176.994 32.843 C 176.994 25.791,176.753 26.155,184.313 21.815 C 187.329 20.084,191.967 17.413,194.620 15.881 C 201.496 11.910,200.416 11.923,207.005 15.734 M178.770 72.727 C 179.757 73.375,185.529 83.117,185.529 84.136 C 185.529 85.706,185.437 85.714,166.438 85.720 C 152.709 85.724,148.028 85.838,147.386 86.184 C 146.589 86.613,144.892 89.470,131.801 112.430 C 126.456 121.803,126.804 121.710,122.828 114.842 C 118.387 107.171,118.302 108.632,123.733 99.258 C 125.742 95.788,129.800 88.692,132.748 83.488 C 135.800 78.102,138.613 73.581,139.278 72.993 L 140.445 71.960 159.184 72.066 C 175.091 72.155,178.050 72.255,178.770 72.727 M261.749 73.151 C 262.699 73.584,264.819 76.982,271.436 88.683 C 273.225 91.846,276.062 96.778,277.740 99.643 C 282.282 107.399,282.251 106.700,278.355 113.500 C 275.423 118.618,274.314 119.761,273.303 118.711 C 272.763 118.151,268.066 110.105,260.455 96.705 C 257.919 92.239,255.401 88.107,254.860 87.521 L 253.877 86.456 234.619 86.456 C 214.444 86.456,214.471 86.459,214.471 84.844 C 214.471 83.036,220.679 73.241,221.984 72.989 C 224.052 72.591,260.849 72.741,261.749 73.151 M84.912 85.671 C 92.723 90.132,92.989 89.492,80.339 96.678 C 75.823 99.244,71.636 101.734,71.036 102.213 L 69.944 103.083 69.759 115.787 C 69.525 131.798,70.469 130.877,60.408 124.918 C 56.158 122.401,56.401 123.380,56.401 108.720 C 56.401 94.387,56.290 94.950,59.479 93.096 C 70.571 86.648,77.133 82.965,77.916 82.747 C 79.167 82.401,79.235 82.430,84.912 85.671 M325.046 84.920 C 326.781 85.912,331.445 88.572,335.411 90.834 C 339.377 93.095,343.092 95.358,343.667 95.862 L 344.712 96.779 344.712 109.037 C 344.712 123.513,345.352 121.786,338.541 125.713 C 330.766 130.195,331.354 130.951,331.354 116.472 L 331.354 105.021 330.334 103.945 C 329.773 103.353,326.391 101.207,322.820 99.175 C 305.893 89.547,306.622 90.722,314.677 86.049 C 320.674 82.570,320.890 82.546,325.046 84.920 M110.864 144.548 C 112.008 145.349,112.114 145.073,107.848 152.401 C 101.291 163.666,94.369 175.655,93.887 176.582 C 92.937 178.407,92.566 177.674,107.242 202.968 C 112.821 212.584,112.604 212.125,112.101 213.230 L 111.682 214.148 105.199 214.031 C 97.584 213.894,98.125 214.175,94.958 208.720 C 93.892 206.883,90.989 201.874,88.507 197.588 C 86.025 193.302,82.628 187.439,80.958 184.559 C 77.103 177.909,77.094 178.391,81.207 171.323 C 83.013 168.218,87.044 161.252,90.164 155.844 C 93.284 150.436,96.316 145.552,96.903 144.991 L 97.971 143.970 104.005 143.970 C 108.866 143.970,110.199 144.083,110.864 144.548 M301.794 144.477 C 302.779 144.889,303.505 145.852,305.643 149.580 C 307.092 152.107,310.313 157.681,312.801 161.967 C 324.095 181.419,323.304 179.344,320.963 183.370 C 318.872 186.966,310.497 201.445,307.802 206.122 C 304.388 212.048,303.582 213.213,302.579 213.670 C 300.859 214.454,290.041 214.244,289.288 213.412 C 288.411 212.443,288.315 212.631,299.820 192.950 C 308.212 178.595,307.820 180.488,303.844 173.547 C 298.279 163.831,290.439 150.326,288.246 146.679 C 287.538 145.501,287.538 145.486,288.293 144.731 C 289.253 143.771,299.637 143.576,301.794 144.477 M31.871 156.313 C 32.725 156.755,39.539 167.946,43.275 175.043 C 45.211 178.720,45.692 177.212,38.741 189.239 C 31.594 201.606,31.923 201.078,31.034 201.575 C 29.977 202.164,19.459 202.426,18.089 201.897 C 16.181 201.160,16.040 201.494,24.165 187.508 C 29.427 178.449,29.504 178.196,27.879 175.325 C 27.302 174.304,24.800 169.944,22.320 165.634 C 17.727 157.654,17.474 157.072,18.256 156.289 C 18.884 155.661,30.649 155.682,31.871 156.313 M383.284 156.555 C 383.788 157.373,383.845 157.267,373.767 174.583 C 370.777 179.720,370.781 179.776,374.603 186.335 C 376.188 189.055,378.520 193.053,379.784 195.219 C 383.775 202.056,383.786 202.041,375.091 202.041 C 367.744 202.041,368.258 202.308,365.089 196.846 C 354.335 178.307,354.922 179.997,357.650 175.399 C 358.644 173.726,361.333 169.100,363.628 165.121 C 365.922 161.141,368.239 157.416,368.777 156.842 L 369.755 155.799 376.357 155.915 C 381.560 156.005,383.028 156.141,383.284 156.555 M335.555 230.541 C 337.020 231.420,339.331 232.782,340.690 233.567 C 344.106 235.540,343.970 234.878,343.970 249.590 L 343.970 262.411 342.900 263.395 C 341.270 264.892,322.757 275.325,321.730 275.325 C 320.157 275.325,310.237 269.461,309.963 268.369 C 309.656 267.146,309.679 267.129,319.851 261.339 C 324.443 258.725,328.701 256.141,329.313 255.597 L 330.427 254.607 330.539 242.254 C 330.675 227.215,330.539 227.532,335.555 230.541 M68.430 229.539 C 68.946 229.737,69.017 231.061,69.019 240.578 C 69.020 246.967,69.180 251.964,69.409 252.791 C 69.868 254.443,69.517 254.203,81.506 261.044 C 93.641 267.968,93.464 267.428,85.144 272.158 C 79.192 275.542,79.567 275.531,74.250 272.495 C 62.106 265.563,57.606 262.881,56.679 262.027 L 55.659 261.086 55.659 248.794 L 55.659 236.502 56.679 235.547 C 57.830 234.469,66.688 229.314,67.388 229.314 C 67.638 229.314,68.107 229.415,68.430 229.539 M275.063 239.054 C 277.187 241.934,280.891 248.897,280.891 250.010 C 280.891 250.809,279.551 253.508,276.577 258.701 C 274.204 262.844,270.263 269.740,267.819 274.026 C 261.954 284.311,261.378 285.190,260.174 285.688 C 259.441 285.992,253.921 286.082,240.737 286.006 L 222.323 285.900 221.356 284.991 C 220.824 284.492,220.002 283.407,219.529 282.580 C 219.055 281.753,217.807 279.602,216.755 277.800 C 213.367 271.997,212.098 272.397,234.246 272.274 C 252.110 272.174,252.692 272.148,253.396 271.429 C 253.796 271.020,258.085 263.757,262.927 255.288 C 273.434 236.911,273.458 236.878,275.063 239.054 M130.871 245.496 C 132.749 248.738,136.744 255.702,139.749 260.970 C 143.807 268.083,145.479 270.686,146.243 271.082 C 147.098 271.524,150.476 271.614,166.144 271.614 C 188.423 271.614,186.975 271.326,184.897 275.341 C 182.237 280.480,179.878 284.150,178.969 284.564 C 178.353 284.845,171.902 284.972,158.303 284.972 L 138.534 284.972 137.785 284.137 C 136.889 283.140,136.308 282.162,127.802 267.347 C 117.106 248.717,117.898 251.675,121.765 244.794 C 126.121 237.044,125.972 237.033,130.871 245.496 M122.240 313.895 C 122.751 314.319,125.841 319.519,131.870 330.096 C 135.881 337.133,135.871 336.747,132.189 343.149 C 127.799 350.783,128.142 350.886,121.965 340.074 C 114.958 327.808,114.712 327.417,113.715 326.963 C 113.059 326.664,109.238 326.531,101.321 326.531 L 89.876 326.531 89.640 325.591 C 89.404 324.650,95.026 314.416,96.194 313.660 C 97.569 312.770,121.141 312.983,122.240 313.895 M304.529 314.474 C 305.320 315.028,310.136 323.099,310.942 325.221 C 311.703 327.223,311.389 327.273,297.909 327.273 C 283.218 327.273,285.570 325.946,278.526 338.204 C 271.927 349.686,271.972 349.652,269.434 345.229 C 268.744 344.027,267.431 341.790,266.517 340.260 C 264.149 336.296,264.194 335.899,267.697 329.870 C 269.298 327.115,271.851 322.690,273.371 320.037 C 274.891 317.384,276.472 314.921,276.884 314.564 C 277.943 313.646,303.229 313.563,304.529 314.474 M223.191 324.613 C 223.191 332.337,223.546 331.754,216.284 335.955 C 197.270 346.955,200.102 346.268,192.393 341.748 C 175.273 331.708,176.994 333.527,176.994 325.471 C 176.994 316.272,175.079 316.023,195.547 327.881 C 199.609 330.235,199.804 330.165,215.584 320.665 C 223.207 316.076,223.191 316.068,223.191 324.613 "-->
<!--              stroke="none" fill="#fcffff" fill-rule="evenodd"></path>-->
    </g>
</svg>
