<?xml version="1.0" standalone="no"?>
<!DOCTYPE svg PUBLIC "-//W3C//DTD SVG 20010904//EN"
 "http://www.w3.org/TR/2001/REC-SVG-20010904/DTD/svg10.dtd">
<svg version="1.0" xmlns="http://www.w3.org/2000/svg"
 width="800.000000pt" height="800.000000pt" viewBox="0 0 800.000000 800.000000"
 preserveAspectRatio="xMidYMid meet">
<metadata>
Created by potrace 1.11, written by Peter Selinger 2001-2013
</metadata>
<g transform="translate(0.000000,800.000000) scale(0.100000,-0.100000)"
fill="#000000" stroke="none">
<path d="M5418 7491 c-34 -39 -108 -185 -108 -210 0 -12 11 -43 24 -69 47 -92
208 -367 227 -387 19 -19 33 -20 265 -20 l246 0 23 29 c33 41 115 190 115 208
0 24 -31 28 -257 28 l-211 0 -25 29 c-14 17 -70 108 -126 203 -88 152 -132
218 -146 218 -2 0 -14 -13 -27 -29z"/>
<path d="M2522 7453 c-16 -27 -58 -97 -92 -158 -74 -130 -102 -169 -138 -193
-23 -15 -55 -17 -259 -17 -152 0 -236 -4 -243 -11 -13 -13 45 -128 100 -202
l36 -47 269 0 270 0 62 100 c35 55 91 155 125 221 l63 122 -40 77 c-48 94 -90
155 -109 155 -8 0 -27 -21 -44 -47z"/>
<path d="M3799 7329 c-107 -60 -209 -126 -227 -145 l-34 -35 4 -120 c2 -91 7
-122 17 -129 17 -10 56 8 221 105 167 98 229 127 254 121 11 -3 104 -53 206
-111 102 -58 192 -104 200 -103 20 4 28 40 29 141 1 101 -13 144 -55 172 -104
69 -373 215 -395 215 -15 0 -108 -47 -220 -111z"/>
<path d="M2777 6228 c-51 -68 -374 -629 -384 -667 -7 -27 10 -65 75 -173 30
-52 52 -78 64 -78 22 0 16 -9 215 338 87 150 169 287 184 305 l27 32 360 4
c284 2 365 6 379 17 17 12 16 17 -16 76 -55 102 -79 136 -108 155 -24 16 -63
18 -399 21 l-372 3 -25 -33z"/>
<path d="M4490 6241 l-65 -6 -63 -95 c-68 -102 -81 -135 -63 -153 9 -9 119
-13 396 -15 l385 -3 25 -33 c14 -18 97 -158 186 -312 89 -153 167 -285 175
-293 12 -13 17 -12 37 7 40 37 117 185 117 223 0 26 -39 102 -161 314 -89 154
-174 298 -190 321 l-28 41 -233 6 c-254 8 -417 7 -518 -2z"/>
<path d="M1525 6029 c-22 -11 -115 -64 -208 -117 -154 -88 -168 -99 -178 -131
-6 -22 -9 -128 -7 -278 3 -227 4 -244 23 -262 21 -20 193 -121 207 -121 20 0
27 56 34 278 6 203 10 244 23 256 9 8 95 60 191 116 96 55 180 108 187 117 8
10 9 22 3 32 -9 17 -183 119 -217 127 -10 3 -36 -5 -58 -17z"/>
<path d="M6324 5995 c-49 -25 -102 -56 -119 -70 l-30 -25 31 -28 c16 -16 104
-70 194 -122 89 -51 178 -106 196 -123 l34 -29 0 -218 c0 -120 3 -225 6 -234
10 -25 28 -20 124 35 138 78 130 58 130 345 l0 243 -32 24 c-42 32 -396 233
-424 241 -15 5 -50 -8 -110 -39z"/>
<path d="M1912 4763 c-22 -32 -108 -177 -193 -323 -119 -205 -154 -273 -154
-300 0 -28 39 -103 175 -339 96 -166 189 -319 206 -339 l32 -37 129 -3 c124
-3 131 -3 136 17 5 22 -21 71 -217 411 -66 113 -128 225 -139 249 -24 54 -34
31 163 371 81 140 155 270 164 288 29 56 14 62 -135 62 l-128 0 -39 -57z"/>
<path d="M5773 4813 c-7 -2 -13 -12 -13 -20 0 -13 239 -435 334 -588 56 -92
53 -102 -120 -400 -84 -143 -162 -282 -175 -308 -33 -68 -25 -72 127 -72 123
0 126 1 148 26 12 14 102 164 200 334 l179 308 -13 36 c-7 20 -94 177 -194
349 -133 231 -188 318 -208 328 -26 14 -235 20 -265 7z"/>
<path d="M417 4583 c-28 -2 -50 -10 -53 -18 -6 -16 21 -71 117 -236 99 -170
103 -180 84 -225 -8 -19 -59 -113 -114 -207 -109 -190 -120 -215 -100 -228 16
-10 201 -12 248 -3 26 6 39 20 80 88 103 173 201 347 207 370 7 29 -28 100
-137 281 -111 183 -99 172 -199 178 -47 2 -107 2 -133 0z"/>
<path d="M7385 4573 c-22 -21 -41 -53 -164 -263 -120 -205 -119 -194 -40 -334
137 -242 171 -295 202 -306 38 -13 207 -13 242 0 35 13 33 19 -81 216 -51 89
-98 180 -104 202 l-12 40 121 210 c66 116 121 216 121 221 0 15 -27 19 -157
25 -95 5 -115 3 -128 -11z"/>
<path d="M1281 3083 c-39 -21 -93 -54 -119 -73 l-47 -36 -3 -246 -2 -247 32
-24 c66 -50 422 -247 446 -247 41 0 232 112 232 135 0 22 -53 60 -221 155 -88
51 -173 103 -187 115 l-27 23 -5 231 c-3 144 -9 234 -16 241 -7 7 -31 0 -83
-27z"/>
<path d="M6616 3068 c-3 -29 -6 -144 -6 -255 l0 -202 -32 -24 c-18 -13 -109
-68 -201 -122 -93 -54 -171 -105 -175 -113 -3 -10 6 -25 26 -42 36 -30 183
-110 203 -110 24 0 309 155 407 222 l43 30 -3 263 c-4 306 7 276 -128 354
-114 66 -125 66 -134 -1z"/>
<path d="M5423 2878 c-22 -35 -106 -178 -187 -318 -81 -140 -154 -264 -162
-275 -14 -19 -30 -20 -377 -26 -199 -3 -370 -9 -379 -13 -27 -12 -22 -31 36
-129 85 -145 37 -132 472 -132 l374 0 24 25 c42 43 378 639 383 681 5 31 -2
52 -37 116 -55 100 -78 133 -95 133 -7 0 -31 -28 -52 -62z"/>
<path d="M2463 2853 c-55 -91 -83 -148 -83 -170 0 -17 299 -549 359 -638 l27
-40 403 2 c460 2 415 -8 479 102 66 112 75 132 62 145 -8 8 -128 13 -396 16
l-386 5 -23 29 c-13 17 -77 122 -141 235 -174 304 -223 381 -242 381 -11 0
-34 -27 -59 -67z"/>
<path d="M1952 1433 c-27 -4 -39 -14 -69 -60 -48 -75 -96 -180 -88 -193 4 -6
90 -10 241 -10 212 0 236 -2 252 -18 10 -10 66 -102 125 -204 59 -102 116
-193 127 -203 26 -24 37 -14 102 92 60 101 64 133 23 213 -47 92 -195 344
-216 365 -18 19 -33 20 -242 21 -122 1 -237 -1 -255 -3z"/>
<path d="M5607 1421 c-53 -5 -72 -11 -83 -26 -51 -69 -217 -373 -221 -404 -4
-30 5 -52 50 -131 31 -52 63 -99 72 -105 24 -14 54 25 152 197 85 149 109 179
156 197 17 7 116 11 245 11 119 0 223 4 231 9 20 13 9 44 -56 151 l-58 95 -65
6 c-80 8 -331 8 -423 0z"/>
<path d="M4260 1259 c-179 -106 -245 -139 -279 -139 -14 0 -86 35 -160 79
-160 92 -235 131 -255 131 -22 0 -26 -23 -26 -142 l0 -110 38 -37 c53 -52 362
-231 398 -231 16 0 56 13 89 29 110 53 340 191 368 222 28 30 28 30 25 157 -3
118 -4 127 -23 130 -11 1 -89 -38 -175 -89z"/>
</g>
</svg>
